<?xml version="1.0" encoding="UTF-8"?>
<!DOCTYPE svg
PUBLIC "-//W3C//DTD SVG 1.1//EN"
       "http://www.w3.org/Graphics/SVG/1.1/DTD/svg11.dtd">
<svg viewBox="390 144 742 426" width="352px" height="282px" xmlns="http://www.w3.org/2000/svg" version="1.1">
   <line x1="548" y1="401" x2="558" y2="401" style="stroke:#bbb;stroke-width:1;"/>
   <line x1="643" y1="189" x2="653" y2="189" style="stroke:#bbb;stroke-width:1;"/>
   <line x1="558" y1="401" x2="643" y2="189" style="stroke:#bbb;stroke-width:1;"/>
   <line x1="555.5" y1="401" x2="551.96446609407" y2="404.53553390593" style="stroke:#bbb;stroke-width:2;"/>
   <line x1="555.5" y1="401" x2="551.96446609407" y2="397.46446609407" style="stroke:#bbb;stroke-width:2;"/>
   <line x1="648" y1="189" x2="644.46446609407" y2="192.53553390593" style="stroke:#bbb;stroke-width:2;"/>
   <line x1="648" y1="189" x2="644.46446609407" y2="185.46446609407" style="stroke:#bbb;stroke-width:2;"/>
   <rect width="74" height="20" x="653" y="159" style="fill:#007;stroke:black;"/>
   <text width="74" height="20" x="658" y="173" style="fill:#fff;" font-family="Arial" font-size="16px"> clientes</text>
   <rect width="74" height="20" x="653" y="179" style="fill:#aea;stroke:black;"/>
   <text width="74" height="20" x="658" y="193" style="fill:black;" font-family="Arial" font-size="16px">id_cliente</text>
   <rect width="74" height="20" x="653" y="199" style="fill:none;stroke:black;"/>
   <text width="74" height="20" x="658" y="213" style="fill:black;" font-family="Arial" font-size="16px">nombre</text>
   <rect width="74" height="20" x="653" y="219" style="fill:none;stroke:black;"/>
   <text width="74" height="20" x="658" y="233" style="fill:black;" font-family="Arial" font-size="16px">apellido</text>
   <rect width="74" height="20" x="653" y="239" style="fill:none;stroke:black;"/>
   <text width="74" height="20" x="658" y="253" style="fill:black;" font-family="Arial" font-size="16px">email</text>
   <rect width="74" height="20" x="653" y="259" style="fill:none;stroke:black;"/>
   <text width="74" height="20" x="658" y="273" style="fill:black;" font-family="Arial" font-size="16px">telefono</text>
   <rect width="143" height="20" x="405" y="271" style="fill:#007;stroke:black;"/>
   <text width="143" height="20" x="410" y="285" style="fill:#fff;" font-family="Arial" font-size="16px"> reservaciones</text>
   <rect width="143" height="20" x="405" y="291" style="fill:#aea;stroke:black;"/>
   <text width="143" height="20" x="410" y="305" style="fill:black;" font-family="Arial" font-size="16px">id_reservacion</text>
   <rect width="143" height="20" x="405" y="311" style="fill:none;stroke:black;"/>
   <text width="143" height="20" x="410" y="325" style="fill:black;" font-family="Arial" font-size="16px">numero_habitacion</text>
   <rect width="143" height="20" x="405" y="331" style="fill:none;stroke:black;"/>
   <text width="143" height="20" x="410" y="345" style="fill:black;" font-family="Arial" font-size="16px">fecha_entrada</text>
   <rect width="143" height="20" x="405" y="351" style="fill:none;stroke:black;"/>
   <text width="143" height="20" x="410" y="365" style="fill:black;" font-family="Arial" font-size="16px">fecha_salida</text>
   <rect width="143" height="20" x="405" y="371" style="fill:none;stroke:black;"/>
   <text width="143" height="20" x="410" y="385" style="fill:black;" font-family="Arial" font-size="16px">monto</text>
   <rect width="143" height="20" x="405" y="391" style="fill:none;stroke:black;"/>
   <text width="143" height="20" x="410" y="405" style="fill:black;" font-family="Arial" font-size="16px">id_cliente</text>
</svg>
